<svg width="80" height="26" viewBox="0 0 80 26" fill="none" xmlns="http://www.w3.org/2000/svg">
<g clip-path="url(#clip0_23_262)">
<path d="M75.8281 1.39665C75.8281 0.627701 76.4418 0.00370132 77.199 0.00370132H78.1135C78.4773 0.00370132 78.8261 0.150458 79.0833 0.411687C79.3405 0.672916 79.485 1.02722 79.485 1.39665C79.485 1.76608 79.3405 2.12039 79.0833 2.38162C78.8261 2.64284 78.4773 2.7896 78.1135 2.7896H77.199C77.0189 2.7896 76.8406 2.75357 76.6742 2.68356C76.5078 2.61355 76.3567 2.51093 76.2294 2.38158C76.1021 2.25222 76.0011 2.09866 75.9322 1.92966C75.8634 1.76066 75.828 1.57955 75.8281 1.39665ZM37.4338 9.2883C37.4338 14.4155 33.3417 18.5723 28.2927 18.5723C23.2444 18.5723 19.1516 14.4155 19.1516 9.2883C19.1516 4.1598 23.2444 0.00435132 28.2927 0.00435132C33.3417 0.00435132 37.4338 4.1598 37.4338 9.2883ZM17.3686 9.24215C17.8742 9.24215 18.2876 9.65815 18.237 10.1691C18.0642 11.9174 17.4065 13.5801 16.3401 14.9639C15.2738 16.3476 13.8427 17.3956 12.2132 17.986C10.5836 18.5765 8.82255 18.6851 7.13463 18.2993C5.44671 17.9135 3.90125 17.0491 2.67786 15.8066C1.45447 14.5641 0.603391 12.9945 0.223531 11.2802C-0.156328 9.56593 -0.049367 7.77735 0.531983 6.12235C1.11333 4.46735 2.1452 3.01389 3.50766 1.93089C4.87012 0.847895 6.50723 0.179835 8.22871 0.00435132C8.73111 -0.0476487 9.14135 0.373551 9.14135 0.885751V8.3133C9.14135 8.8268 9.55095 9.24215 10.0559 9.24215H17.3686ZM50.2319 20.4293C50.9592 20.4293 51.6568 20.7227 52.1711 21.2451C52.6854 21.7674 52.9743 22.4759 52.9743 23.2146C52.9743 23.9532 52.6854 24.6617 52.1711 25.184C51.6568 25.7064 50.9592 25.9998 50.2319 25.9998H45.6617C44.9343 25.9998 44.2368 25.7064 43.7225 25.184C43.2082 24.6617 42.9193 23.9532 42.9193 23.2146C42.9193 22.4759 43.2082 21.7674 43.7225 21.2451C44.2368 20.7227 44.9343 20.4293 45.6617 20.4293H50.2319ZM47.4895 18.5723C52.5385 18.5723 56.6313 14.4155 56.6313 9.2883C56.6334 7.71332 56.2393 6.16389 55.4863 4.78705L56.9967 3.25305C57.1707 3.07627 57.3087 2.86642 57.4028 2.63548C57.4969 2.40454 57.5453 2.15703 57.5453 1.90709C57.5452 1.65715 57.4967 1.40967 57.4025 1.17877C57.3082 0.947877 57.1701 0.738095 56.9961 0.561401C56.822 0.384708 56.6154 0.244563 56.388 0.14897C56.1606 0.0533771 55.9169 0.00420695 55.6708 0.00426731C55.4247 0.00432767 55.181 0.0536173 54.9537 0.149322C54.7264 0.245027 54.5198 0.385272 54.3458 0.562051L53.0274 1.90105C51.4369 0.66729 49.4902 0.000430633 47.4889 0.00370132C42.4412 0.00435132 38.349 4.1598 38.349 9.2883C38.349 14.4155 42.4412 18.5723 47.4895 18.5723ZM75.8281 9.2883C75.8281 14.4155 71.7353 18.5723 66.6863 18.5723C61.638 18.5723 57.5452 14.4155 57.5452 9.2883C57.5452 4.1598 61.638 0.00435132 66.6863 0.00435132C71.7353 0.00435132 75.8281 4.16045 75.8281 9.2883Z" fill="url(#paint0_linear_23_262)"/>
</g>
<defs>
<linearGradient id="paint0_linear_23_262" x1="0.000231236" y1="10.3998" x2="76.1602" y2="10.3998" gradientUnits="userSpaceOnUse">
<stop stop-color="#64C2DB"/>
<stop offset="0.307" stop-color="#7476ED"/>
<stop offset="0.604" stop-color="#C994DF"/>
<stop offset="1" stop-color="#E56F8C"/>
</linearGradient>
<clipPath id="clip0_23_262">
<rect width="80" height="26" fill="white"/>
</clipPath>
</defs>
</svg>
